<svg xmlns="http://www.w3.org/2000/svg" viewBox="0 0 512 512">
  <defs>
    <linearGradient id="g" x1="0" x2="1" y1="0" y2="1">
      <stop offset="0%" stop-color="#5fc5ff"/>
      <stop offset="100%" stop-color="#8bfed7"/>
    </linearGradient>
  </defs>
  <rect width="512" height="512" rx="110" fill="#07101d"/>
  <path d="M115 314c0-18 14-32 32-32h58l37-118c9-27 46-27 55 0l37 118h31c24 0 43 19 43 43v35c0 15-12 27-27 27H142c-15 0-27-12-27-27zm114-24h54l-27-89zm-54 97a24 24 0 1 1 0 48 24 24 0 0 1 0-48m162 0a24 24 0 1 1 0 48 24 24 0 0 1 0-48" fill="url(#g)"/>
  <path d="M117 233 255 78l138 155" fill="none" stroke="url(#g)" stroke-width="22" stroke-linecap="round" stroke-linejoin="round"/>
</svg>
