<svg xmlns="http://www.w3.org/2000/svg" viewBox="0 0 900 560" fill="none">
<rect width="900" height="560" rx="30" fill="#08111f"/>
<path d="M100 360L180 280L310 230L430 170L560 185L730 150L800 230L755 360L585 420L470 390L310 430L180 405L100 360Z" fill="#0f172a" stroke="#334155" stroke-width="3"/>
<path d="M260 310L430 230L640 220" stroke="#38bdf8" stroke-width="5" stroke-dasharray="10 10"/>
<path d="M430 230L515 335L640 220" stroke="#8b5cf6" stroke-width="5" stroke-dasharray="10 10"/>
<g font-family="Arial">
<circle cx="260" cy="310" r="16" fill="#22c55e"/><text x="220" y="345" fill="#e2e8f0" font-size="24">Shymkent Hub</text>
<circle cx="430" cy="230" r="16" fill="#0ea5e9"/><text x="390" y="200" fill="#e2e8f0" font-size="24">Almaty Hub</text>
<circle cx="640" cy="220" r="16" fill="#f59e0b"/><text x="613" y="188" fill="#e2e8f0" font-size="24">Astana Hub</text>
<circle cx="515" cy="335" r="14" fill="#ec4899"/><text x="490" y="370" fill="#e2e8f0" font-size="22">Karaganda</text>
</g>
</svg>